<svg id="Layer_1" viewBox="0 0 24 24" xmlns="http://www.w3.org/2000/svg" data-name="Layer 1"><path d="m23.408 11.892c-.143-.169-.31-.309-.487-.433.039-.336.066-.665.066-.978.002-1.068-.412-2.072-1.167-2.827-.255-.255-.545-.458-.852-.632l3-3.017-.709-.705-3.296 3.314c-.208-.05-.42-.09-.64-.107-.328-1.009-1.113-1.79-2.088-2.142l3.328-3.683-.741-.669-3.748 4.147c-.367 0-.732.064-1.089.189-.753-.852-1.84-1.349-2.979-1.349h-.007c-1.142.002-2.232.504-2.991 1.36-.355-.123-.72-.186-1.088-.186h-.007c-1.484.003-2.791.971-3.248 2.353-2.053.171-3.675 1.897-3.679 3.992 0 .31.024.632.06.959-.166.119-.321.254-.456.414-.475.564-.678 1.303-.555 2.03.743 4.37 3.604 8.074 7.85 10.078h8.129c4.287-1.984 7.206-5.674 7.951-10.078.123-.727-.08-1.466-.557-2.03zm-21.421-1.371c-.013-1.82 1.653-3.224 3.469-2.981.122-1.285 1.128-2.377 2.46-2.365.486-.039.974.205 1.41.419.578-.939 1.568-1.61 2.681-1.594 1.109-.016 2.092.65 2.662 1.585.415-.232.99-.422 1.419-.426 1.369-.022 2.237 1.084 2.497 2.327.93-.06 1.87.191 2.528.874.723.702.972 1.707.847 2.691-.154-.029-.309-.051-.469-.051h-3.542c-.245-1.692-1.691-3-3.449-3-1.316 0-2.451.739-3.049 1.816-1.517-2.203-3.011-2.578-3.582-2.839-.386.521-1.244 1.228-1.358 4.022h-4.002c-.17 0-.336.021-.499.055-.013-.181-.023-.36-.023-.533zm5.514.479c-.003-1.408.425-2.352.692-2.802.65.333 2.036 1.208 2.754 2.802zm9.448 0h-4.899c.232-1.14 1.242-2 2.449-2s2.217.86 2.449 2zm6.029 2.754c-.682 4.01-3.3 7.373-7.19 9.246h-7.576c-3.891-1.873-6.509-5.236-7.19-9.246-.074-.435.048-.878.334-1.218.288-.341.709-.536 1.153-.536h18.982c.444 0 .865.195 1.153.536.286.34.408.783.334 1.218z"/></svg>